<svg width="29" height="22" viewBox="0 0 29 22" fill="none" xmlns="http://www.w3.org/2000/svg">
<path d="M27.3623 8.57342L26.1085 8.57342L22.8835 1.3177C22.7375 0.989423 22.4995 0.710516 22.1983 0.514768C21.897 0.31902 21.5455 0.214833 21.1862 0.214828L7.53385 0.214828C7.1746 0.214833 6.82305 0.31902 6.5218 0.514768C6.22056 0.710516 5.98254 0.989423 5.83659 1.3177L2.61157 8.57342L1.35778 8.57342C1.11146 8.57342 0.875237 8.67127 0.701066 8.84544C0.526895 9.01961 0.429046 9.25584 0.429046 9.50216C0.429046 9.74847 0.526895 9.9847 0.701066 10.1589C0.875237 10.333 1.11146 10.4309 1.35778 10.4309L2.28651 10.4309L2.28651 19.7182C2.28651 20.2108 2.48221 20.6833 2.83055 21.0316C3.17889 21.38 3.65135 21.5757 4.14398 21.5757L6.93018 21.5757C7.42281 21.5757 7.89526 21.38 8.2436 21.0316C8.59195 20.6833 8.78764 20.2108 8.78764 19.7182L8.78764 17.8607L19.9324 17.8607L19.9324 19.7182C19.9324 20.2108 20.1281 20.6833 20.4765 21.0316C20.8248 21.38 21.2973 21.5757 21.7899 21.5757L24.5761 21.5757C25.0687 21.5757 25.5412 21.38 25.8895 21.0316C26.2379 20.6833 26.4336 20.2108 26.4336 19.7182L26.4336 10.4309L27.3623 10.4309C27.6086 10.4309 27.8448 10.333 28.019 10.1589C28.1932 9.9847 28.291 9.74847 28.291 9.50216C28.291 9.25584 28.1932 9.01961 28.019 8.84544C27.8448 8.67127 27.6086 8.57342 27.3623 8.57342Z" fill="#5C3A12"/>
</svg>
