<svg width="27" height="24" viewBox="0 0 27 24" fill="none" xmlns="http://www.w3.org/2000/svg">
<path d="M25.4792 5.21954L23.234 2.97665C23.0597 2.80239 22.8233 2.70448 22.5769 2.70448C22.3304 2.70448 22.0941 2.80239 21.9198 2.97665C21.7455 3.15092 21.6476 3.38728 21.6476 3.63373C21.6476 3.88019 21.7455 4.11654 21.9198 4.29081L24.1627 6.53602C24.336 6.70949 24.4336 6.94444 24.4344 7.18962L24.4344 16.636C24.4344 16.8823 24.3365 17.1185 24.1623 17.2927C23.9882 17.4669 23.7519 17.5647 23.5056 17.5647C23.2593 17.5647 23.0231 17.4669 22.8489 17.2927C22.6747 17.1185 22.5769 16.8823 22.5769 16.636L22.5769 11.9923C22.5769 11.2534 22.2833 10.5447 21.7608 10.0222C21.2383 9.49968 20.5296 9.20613 19.7907 9.20613L17.9332 9.20613L17.9332 3.63373C17.9332 2.89479 17.6397 2.18611 17.1172 1.66359C16.5946 1.14108 15.886 0.847534 15.147 0.847534L5.85969 0.847534C5.12075 0.847534 4.41206 1.14108 3.88955 1.66359C3.36704 2.18611 3.07349 2.89479 3.07349 3.63373L3.07349 21.2797L1.21603 21.2797C0.969711 21.2797 0.733485 21.3775 0.559313 21.5517C0.385142 21.7258 0.287294 21.9621 0.287294 22.2084C0.287294 22.4547 0.385142 22.6909 0.559313 22.8651C0.733485 23.0393 0.969712 23.1371 1.21603 23.1371L19.7907 23.1371C20.037 23.1371 20.2732 23.0393 20.4474 22.8651C20.6216 22.6909 20.7194 22.4547 20.7194 22.2084C20.7194 21.9621 20.6216 21.7258 20.4474 21.5517C20.2732 21.3775 20.037 21.2797 19.7907 21.2797L17.9332 21.2797L17.9332 11.0636L19.7907 11.0636C20.037 11.0636 20.2732 11.1614 20.4474 11.3356C20.6216 11.5098 20.7194 11.746 20.7194 11.9923L20.7194 16.636C20.7194 17.3749 21.013 18.0836 21.5355 18.6061C22.058 19.1286 22.7667 19.4222 23.5056 19.4222C24.2446 19.4222 24.9532 19.1286 25.4758 18.6061C25.9983 18.0836 26.2918 17.3749 26.2918 16.636L26.2918 7.18962C26.2932 6.82384 26.2221 6.46141 26.0826 6.12327C25.9432 5.78512 25.7381 5.47797 25.4792 5.21954ZM14.2183 11.0636L6.78843 11.0636C6.54211 11.0636 6.30588 10.9657 6.13171 10.7916C5.95754 10.6174 5.85969 10.3812 5.85969 10.1349C5.85969 9.88855 5.95754 9.65232 6.13171 9.47815C6.30588 9.30398 6.54211 9.20613 6.78843 9.20613L14.2183 9.20613C14.4646 9.20613 14.7008 9.30398 14.875 9.47815C15.0492 9.65232 15.147 9.88855 15.147 10.1349C15.147 10.3812 15.0492 10.6174 14.875 10.7916C14.7008 10.9657 14.4646 11.0636 14.2183 11.0636Z" fill="#80121D"/>
</svg>
