<svg width="25" height="24" viewBox="0 0 25 24" fill="none" xmlns="http://www.w3.org/2000/svg">
<path d="M23.5042 9.92546L22.5325 9.92546C22.2991 7.38871 21.1264 5.03067 19.2444 3.31383C17.3624 1.59699 14.9068 0.645233 12.3594 0.645233C9.8119 0.645233 7.35635 1.59699 5.47432 3.31383C3.5923 5.03067 2.41961 7.38871 2.18625 9.92546L1.21456 9.92546C0.968245 9.92546 0.732018 10.0233 0.557846 10.1975C0.383675 10.3716 0.285827 10.6079 0.285827 10.8542C0.289907 13.0629 0.897737 15.2284 2.04358 17.1166C3.18943 19.0048 4.82968 20.5437 6.78696 21.5671L6.78696 21.999C6.78696 22.4916 6.98265 22.9641 7.331 23.3124C7.67934 23.6607 8.15179 23.8564 8.64442 23.8564L16.0743 23.8564C16.5669 23.8564 17.0394 23.6607 17.3877 23.3124C17.7361 22.9641 17.9318 22.4916 17.9318 21.999L17.9318 21.5671C19.889 20.5437 21.5293 19.0048 22.6751 17.1166C23.821 15.2284 24.4288 13.0629 24.4329 10.8542C24.4329 10.6079 24.335 10.3716 24.1609 10.1975C23.9867 10.0233 23.7505 9.92546 23.5042 9.92546ZM17.6392 4.37976C17.852 4.5539 18.056 4.73771 18.251 4.93119C15.7787 5.8009 13.7356 7.5883 12.5451 9.92313L9.1204 9.92313C9.70087 8.29603 10.7695 6.88781 12.1804 5.89086C13.5912 4.89391 15.2755 4.35685 17.003 4.35306C17.2155 4.35306 17.4279 4.36351 17.6392 4.37976ZM14.6951 9.92546C15.8211 8.23619 17.5246 7.01563 19.4862 6.49263C20.1276 7.53589 20.53 8.70822 20.6646 9.92546L14.6951 9.92546ZM12.3594 2.49559C13.1046 2.49609 13.8465 2.59643 14.5651 2.79395C12.8149 3.2281 11.2101 4.11593 9.91247 5.36796C8.61479 6.61998 7.67007 8.19196 7.17354 9.92546L4.05416 9.92546C4.28454 7.88324 5.25841 5.99723 6.7901 4.62697C8.3218 3.25671 10.3042 2.49804 12.3594 2.49559Z" fill="#114036"/>
</svg>
