<svg width="102" height="59" viewBox="0 0 102 59" fill="none" xmlns="http://www.w3.org/2000/svg">
<path d="M66.6311 -2.36258C64.3217 -3.53791 61.8473 -4.17712 59.2698 -4.17712C57.1872 -4.17712 55.1871 -3.76473 53.3107 -3.00179C44.238 0.668539 37.619 12.5043 37.619 26.5258C37.619 40.5473 44.238 52.3831 53.3107 56.0534C55.2077 56.8164 57.2079 57.2288 59.2698 57.2288C61.8473 57.2288 64.3423 56.5896 66.6311 55.4142M66.6311 -2.36258C60.0328 1.90573 55.3315 13.226 55.3315 26.5258C55.3315 39.8256 60.0328 51.1459 66.6311 55.4142M66.6311 -2.36258C68.4457 -3.53791 70.4046 -4.17712 72.446 -4.17712C75.1678 -4.17712 77.7453 -3.02241 80.0341 -1.00167M66.6311 55.4142C68.4457 56.5896 70.4046 57.2288 72.446 57.2288C75.1678 57.2288 77.7453 56.0947 80.0341 54.0533M80.0341 -1.00167C75.8895 4.00895 73.0233 14.4632 73.0233 26.5258M80.0341 -1.00167C75.8689 4.02957 73.0233 14.4632 73.0233 26.5258M80.0341 -1.00167C81.7249 -3.02241 83.6221 -4.17712 85.6222 -4.17712C88.6739 -4.17712 91.4782 -1.51716 93.6639 2.89548C91.8906 8.5247 90.7565 17.0201 90.7565 26.5258M73.0233 26.5258C73.0233 38.5884 75.8689 49.0221 80.0341 54.0533M73.0233 26.5258C73.0233 38.5884 75.8895 49.0427 80.0341 54.0533M80.0341 54.0533C81.7249 56.0741 83.6221 57.2288 85.6222 57.2288C88.6946 57.2288 91.4782 54.5688 93.6639 50.1562M90.7565 26.5258C90.7565 36.0316 91.8906 44.5269 93.6639 50.1562M90.7565 26.5258C90.7565 17.0201 91.8701 8.5247 93.6434 2.89548C95.0456 -1.51716 96.8395 -4.17712 98.7984 -4.17712C103.252 -4.17712 106.861 9.57631 106.861 26.5258C106.861 43.4753 103.252 57.2288 98.7984 57.2288C96.8395 57.2288 95.0455 54.5688 93.6639 50.1562M32.9176 -4.17712C35.3713 -4.17712 37.7426 -3.88845 40.0314 -3.35233C28.5049 -0.135635 19.9271 12.0095 19.9271 26.5258C19.9271 41.0422 28.4843 53.1873 40.0314 56.404C37.7426 56.9401 35.3713 57.2288 32.9176 57.2288C15.9681 57.2288 2.21462 43.4753 2.21462 26.5258C2.21462 9.57631 15.9474 -4.17712 32.9176 -4.17712ZM19.906 26.5258C19.906 12.0095 28.4838 -0.135635 40.0309 -3.35233C41.9692 -3.88845 44.0105 -4.17712 46.0932 -4.17712C48.5882 -4.17712 51.0213 -3.76473 53.3101 -3.00179C44.258 0.668539 37.6184 12.5043 37.6184 26.5258C37.6184 40.5473 44.2374 52.3831 53.3101 56.0534C51.0213 56.8164 48.6088 57.2288 46.0932 57.2288C44.0105 57.2288 41.9692 56.9401 40.0309 56.404C28.4838 53.1873 19.906 41.0422 19.906 26.5258ZM111.974 -4.17712C113.912 -4.17712 115.5 9.57631 115.5 26.5258C115.5 43.4753 113.912 57.2288 111.974 57.2288C110.036 57.2288 108.448 43.4753 108.448 26.5258C108.448 9.57631 110.015 -4.17712 111.974 -4.17712Z" stroke="#C5FCC9" stroke-width="3" stroke-linecap="round" stroke-linejoin="round"/>
</svg>
