<svg width="71" height="60" viewBox="0 0 71 60" fill="none" xmlns="http://www.w3.org/2000/svg">
<path d="M73.0835 16.8753C71.8611 20.5747 69.5367 25.2569 67.1844 29.3121C56.5113 47.7088 39.2701 58.2907 39.2701 58.2907M73.0835 16.8753C78.0302 1.90621 76.0634 -8.69758 76.0634 -8.69758M73.0835 16.8753C76.2976 27.3191 76.6666 34.5002 76.4493 36.7853L39.2701 58.2907M76.0634 -8.69758L43.7704 15.2637M76.0634 -8.69758L34.6095 -27.4288L2.24142 -3.26458M43.7704 15.2637C30.1477 25.9064 14.3965 31.7447 1.86852 36.7012M43.7704 15.2637L2.24142 -3.26458M1.86852 36.7012L39.2701 58.2907M1.86852 36.7012C9.92324 30.365 21.2744 13.5012 2.24142 -3.26458" stroke="#FFE38E" stroke-width="3" stroke-linecap="round" stroke-linejoin="round"/>
</svg>
