<svg width="152" height="58" viewBox="0 0 152 58" fill="none" xmlns="http://www.w3.org/2000/svg">
<path d="M170.476 -85.0212V-35.718C170.476 7.2721 135.625 42.1225 92.6351 42.1225C49.645 42.1225 14.7946 7.2721 14.7946 -35.718V-85.0212M170.476 -85.0212H182.706V-33.807C182.706 16.008 142.323 56.3911 92.5077 56.3911C42.6927 56.3911 2.30957 16.008 2.30957 -33.807V-85.0212H14.7946M170.476 -85.0212H156.462M14.7946 -85.0212H28.8085M156.462 -85.0212V-35.9728C156.462 -0.722326 127.886 27.8538 92.6351 27.8538C57.3846 27.8538 28.8085 -0.722326 28.8085 -35.9728V-85.0212M156.462 -85.0212H142.703M28.8085 -85.0212H42.5675M142.703 -85.0212V-37.7564C142.703 -10.1048 120.287 12.3112 92.6351 12.3112C64.9835 12.3112 42.5675 -10.1048 42.5675 -37.7564V-85.0212M142.703 -85.0212H128.434V-38.5208C128.434 -18.7496 112.406 -2.7218 92.6351 -2.7218C72.8639 -2.7218 56.8361 -18.7496 56.8361 -38.5208V-85.0212H42.5675" stroke="#FFCBB4" stroke-width="3" stroke-miterlimit="10" stroke-linecap="round" stroke-linejoin="round"/>
</svg>
